<mxfile host="app.diagrams.net" modified="2024-02-29T11:10:33.037Z" agent="Mozilla/5.0 (Macintosh; Intel Mac OS X 10_15_7) AppleWebKit/537.36 (KHTML, like Gecko) Chrome/122.0.0.0 Safari/537.36" etag="U9eE06jsqLGgnkRpIyNM" version="23.0.2" type="github">
  <diagram name="Page-1" id="IYpfTflwxtu-5Y0YINwe">
    <mxGraphModel dx="954" dy="2266" grid="1" gridSize="10" guides="1" tooltips="1" connect="1" arrows="1" fold="1" page="1" pageScale="1" pageWidth="850" pageHeight="1100" math="0" shadow="0">
      <root>
        <mxCell id="0" />
        <mxCell id="1" parent="0" />
      </root>
    </mxGraphModel>
  </diagram>
</mxfile>
